#N canvas 192 50 1030 861 10;
#X obj 213 843 outlet;
#X obj 313 68 inlet;
#X text 374 67 reset;
#X obj 71 45 inlet;
#X text 116 48 beat phasor;
#X obj 333 584 + 1, f 8;
#X obj 223 446 t f f, f 8;
#X text 399 470 when current value is lees than previous value the
phasor rolled over and we increment the beat count. when phasor is
reset \, the previous value and beat counter are set to 0;
#X obj 276 583 f 0, f 6;
#X msg 356 465 0;
#X obj 276 605 t f f;
#X obj 223 698 + 0, f 7;
#X obj 276 627 * 100;
#X obj 223 734 + 100;
#X obj 224 267 -;
#X obj 206 294 + 0;
#X msg 224 244 95 \$1;
#X obj 134 175 t f f;
#X obj 276 550 sel 1;
#X obj 276 475 t f f;
#X obj 323 132 t b b;
#X obj 276 517 <;
#X obj 224 218 f 1;
#X obj 206 322 % 96;
#X obj 227 755 i;
#X connect 1 0 20 0;
#X connect 3 0 17 0;
#X connect 5 0 8 1;
#X connect 6 0 11 0;
#X connect 6 1 19 0;
#X connect 8 0 10 0;
#X connect 9 0 21 1;
#X connect 9 0 8 0;
#X connect 10 0 12 0;
#X connect 10 1 5 0;
#X connect 11 0 13 0;
#X connect 12 0 11 1;
#X connect 13 0 24 0;
#X connect 14 0 15 1;
#X connect 15 0 23 0;
#X connect 16 0 14 0;
#X connect 17 0 15 0;
#X connect 17 1 22 1;
#X connect 18 0 8 0;
#X connect 19 0 21 1;
#X connect 19 1 21 0;
#X connect 20 0 22 0;
#X connect 20 1 9 0;
#X connect 21 0 18 0;
#X connect 22 0 16 0;
#X connect 23 0 6 0;
#X connect 24 0 0 0;
