#N canvas 85 50 1536 956 10;
#X obj 119 942 <, f 5;
#X obj 119 906 t f f;
#X obj 119 967 sel 1;
#X obj 295 74 inlet BPM;
#X obj 142 883 s cg-beat-clock;
#X obj 119 992 s cg-beat;
#X obj 871 251 f \$1;
#X text 873 19 arg1: midi clock+LINK on or off. turn off(0) for patches
that have no tempo. turn on(1) for patches that will sync to clock
;
#X obj 871 220 loadbang;
#X obj 506 827 outlet;
#X obj 937 815 outlet MIDI BPM;
#X obj 717 824 outlet LINK;
#N canvas 467 218 618 485 og-metro 0;
#X obj 117 19 inlet bpm;
#X obj 115 386 outlet ticks;
#X obj 325 386 outlet BPM;
#X obj 91 243 snapshot~;
#X obj 117 208 bang~;
#X obj 104 291 i;
#X obj 91 340 change;
#X floatatom 91 147 5 0 0 0 - - -, f 5;
#X floatatom 86 88 5 0 350 0 - - -, f 5;
#X obj 87 117 / 60;
#X msg 155 78 0;
#X obj 156 54 loadbang;
#X obj 91 175 phasor~ 1;
#X obj 104 269 * 100;
#X obj 104 313 / 100;
#X text 147 296 divide clock into 100 ticks;
#X connect 0 0 2 0;
#X connect 0 0 8 0;
#X connect 3 0 13 0;
#X connect 4 0 3 0;
#X connect 5 0 14 0;
#X connect 6 0 1 0;
#X connect 7 0 12 0;
#X connect 8 0 9 0;
#X connect 9 0 7 0;
#X connect 10 0 12 1;
#X connect 11 0 10 0;
#X connect 12 0 3 0;
#X connect 13 0 5 0;
#X connect 14 0 6 0;
#X restore 123 351 pd og-metro;
#N canvas 464 227 618 485 link-metro 0;
#X obj 117 19 inlet bpm;
#X obj 115 386 outlet ticks;
#X obj 325 386 outlet BPM;
#N canvas 45 50 815 554 LINK 0;
#X msg 355 126 tempo \$1;
#X msg 144 127 resolution \$1;
#X msg 247 147 reset \$1 \$2;
#X obj 247 126 pack f f;
#X obj 59 105 tgl 15 0 empty empty empty 17 7 0 10 -262144 -1 -1 1
1;
#X obj 204 203 abl_link~ 1 0 4 134, f 35;
#X floatatom 355 107 5 0 0 2 tempo - -, f 5;
#X floatatom 292 107 5 0 0 2 quantum - -, f 5;
#X floatatom 247 107 5 0 0 2 beat - -, f 5;
#X floatatom 144 107 5 0 0 2 resolution - -, f 5;
#X msg 59 125 connect \$1;
#X obj 517 219 r #abl_link_num_peers;
#X obj 59 49 loadbang;
#X obj 59 71 delay 100;
#X obj 369 33 inlet;
#X obj 446 273 i;
#X obj 284 442 outlet;
#X obj 446 295 outlet;
#X obj 530 271 > 0;
#X obj 530 293 s link-session-present;
#X floatatom 575 256 5 0 0 0 - - -, f 5;
#X obj 284 351 wrap;
#X connect 0 0 5 0;
#X connect 1 0 5 0;
#X connect 2 0 5 0;
#X connect 3 0 2 0;
#X connect 4 0 10 0;
#X connect 5 1 21 0;
#X connect 5 3 15 0;
#X connect 6 0 0 0;
#X connect 7 0 3 1;
#X connect 8 0 3 0;
#X connect 9 0 1 0;
#X connect 10 0 5 0;
#X connect 11 0 18 0;
#X connect 11 0 20 0;
#X connect 12 0 13 0;
#X connect 13 0 4 0;
#X connect 14 0 6 0;
#X connect 15 0 17 0;
#X connect 18 0 19 0;
#X connect 21 0 16 0;
#X restore 118 141 pd LINK;
#X obj 115 245 i;
#X obj 102 294 change;
#X obj 115 223 * 100;
#X obj 115 267 / 100;
#X text 158 250 divide clock into steps;
#X connect 0 0 3 0;
#X connect 3 0 6 0;
#X connect 3 1 2 0;
#X connect 4 0 7 0;
#X connect 5 0 1 0;
#X connect 6 0 4 0;
#X connect 7 0 5 0;
#X restore 425 363 pd link-metro;
#N canvas 483 170 702 585 MIDI-metro 0;
#X obj 172 539 outlet ticks;
#X obj 302 536 outlet BPM;
#X obj 172 7 midirealtimein;
#X obj 344 185 delay 1000;
#X msg 225 153 1;
#X obj 172 122 t b b b b, f 25;
#X msg 344 160 stop;
#X msg 344 209 0;
#X obj 276 304 s midi-clock-present;
#X obj 255 250 + 1;
#X obj 225 250 f 0;
#X obj 225 272 % 2;
#X obj 172 352 f;
#X obj 230 351 + 1;
#X obj 172 320 spigot 0;
#X obj 172 374 % 24;
#N canvas 300 750 292 294 mstobpm 0;
#X obj 45 13 inlet;
#X obj 56 248 outlet;
#X obj 46 108 t b b;
#X obj 45 78 sel 0;
#X text 98 55 time 16th notes;
#X obj 46 145 timer;
#X obj 47 45 % 24;
#X obj 55 182 expr 60000 / $f1;
#X connect 0 0 6 0;
#X connect 2 0 5 0;
#X connect 2 1 5 1;
#X connect 3 0 2 0;
#X connect 5 0 7 0;
#X connect 6 0 3 0;
#X connect 7 0 1 0;
#X restore 303 438 pd mstobpm;
#X obj 356 490 r midi-clock-present;
#X obj 303 515 spigot 0;
#X text 430 5 MIDI 248 = clock \; 250 = start \; 251 = continue. 252
= stop;
#X obj 269 58 s cg-midi-stop;
#X obj 462 152 r cg-midi-stop;
#X obj 172 29 sel 248 250 251 252 254, f 27;
#N canvas 460 333 729 612 average-bpm 0;
#X obj 98 20 inlet;
#X obj 230 78 array define \$0-bpm-mean 5;
#X obj 251 280 array set \$0-bpm-mean 5;
#X obj 360 226 + 1;
#X obj 330 246 % 5;
#X obj 251 189 t a b;
#X obj 330 224 f 0;
#X obj 48 185 array sum \$0-bpm-mean;
#X obj 98 42 t b a;
#X obj 48 207 / 5;
#X obj 48 229 + 0.499999;
#X obj 48 251 i;
#X obj 48 273 outlet;
#X obj 284 11 loadbang;
#X msg 284 33 const 120;
#X connect 0 0 8 0;
#X connect 3 0 6 1;
#X connect 4 0 2 1;
#X connect 5 0 2 0;
#X connect 5 1 6 0;
#X connect 6 0 3 0;
#X connect 6 0 4 0;
#X connect 7 0 9 0;
#X connect 8 0 7 0;
#X connect 8 1 5 0;
#X connect 9 0 10 0;
#X connect 10 0 11 0;
#X connect 11 0 12 0;
#X connect 13 0 14 0;
#X connect 14 0 1 0;
#X restore 303 461 pd average-bpm;
#X obj 172 396 / 24;
#X obj 111 72 bng 15 250 50 0 empty empty empty 17 7 0 10 -262144 -1
-1;
#X obj 237 73 bng 15 250 50 0 empty empty empty 17 7 0 10 -262144 -1
-1;
#X obj 400 78 bng 15 250 50 0 empty empty empty 17 7 0 10 -262144 -1
-1;
#X obj 335 255 t b b;
#X obj 335 345 s cg-midi-start;
#X msg 367 277 0;
#X text 401 275 every midi start restart the beat clock;
#X connect 2 0 22 0;
#X connect 3 0 7 0;
#X connect 4 0 10 0;
#X connect 5 0 14 0;
#X connect 5 1 3 0;
#X connect 5 2 4 0;
#X connect 5 3 6 0;
#X connect 6 0 3 0;
#X connect 7 0 10 0;
#X connect 7 0 12 1;
#X connect 9 0 10 1;
#X connect 10 0 9 0;
#X connect 10 0 11 0;
#X connect 11 0 8 0;
#X connect 11 0 14 1;
#X connect 12 0 13 0;
#X connect 12 0 15 0;
#X connect 13 0 12 1;
#X connect 14 0 12 0;
#X connect 15 0 16 0;
#X connect 15 0 24 0;
#X connect 16 0 23 0;
#X connect 17 0 18 1;
#X connect 18 0 1 0;
#X connect 21 0 7 0;
#X connect 22 0 5 0;
#X connect 22 1 25 0;
#X connect 22 1 28 0;
#X connect 22 2 26 0;
#X connect 22 2 28 0;
#X connect 22 3 20 0;
#X connect 22 3 27 0;
#X connect 23 0 18 0;
#X connect 24 0 0 0;
#X connect 28 0 29 0;
#X connect 28 1 30 0;
#X connect 30 0 12 1;
#X restore 818 372 pd MIDI-metro;
#X obj 425 435 spigot 0;
#X obj 513 435 spigot 0;
#X obj 818 434 spigot 0;
#X obj 906 434 spigot 0;
#X obj 421 121 r link-session-present;
#X obj 251 331 r midi-clock-present;
#X obj 236 457 r link-session-present;
#X obj 566 474 r link-session-present;
#X obj 119 661 r \$0-metro-local-clicks;
#X obj 123 619 s \$0-metro-local-clicks;
#X obj 425 637 s \$0-metro-local-clicks;
#X obj 818 566 s \$0-metro-local-clicks;
#X floatatom 421 143 5 0 0 0 - - -, f 5;
#X floatatom 654 149 5 0 0 0 - - -, f 5;
#X obj 654 128 r midi-clock-present;
#X obj 123 434 spigot 1;
#X obj 197 434 spigot 1;
#X obj 123 554 spigot 1;
#X obj 959 498 == 0;
#X obj 959 475 r link-session-present;
#X obj 818 532 spigot 0;
#X obj 906 532 spigot 0;
#X obj 425 534 spigot 0;
#X obj 513 534 spigot 0;
#X obj 197 400 f;
#X obj 292 422 sel 1;
#X obj 251 375 t f f;
#X obj 236 500 t f f;
#X obj 299 528 sel 1;
#X obj 236 479 == 0;
#X obj 251 353 ==;
#X obj 197 555 spigot 1;
#X obj 1237 373 r cg-beat;
#X obj 1237 515 t b b b, f 22;
#X obj 1312 721 s led;
#X msg 1254 587 stop;
#X obj 1370 684 f 0;
#X obj 1362 586 r seq3-\$1-actions;
#X obj 1362 608 sel 0 1 2 3 4, f 21;
#X msg 1362 630 0;
#X msg 1394 652 3;
#X msg 1431 646 6;
#X msg 1460 676 1;
#X msg 1460 639 4;
#X msg 1312 548 7;
#X obj 1237 617 del 50;
#X obj 1276 415 r seq3-\$1-actions;
#X obj 1237 445 spigot;
#X msg 165 808 248;
#X obj 165 840 midiout;
#X obj 119 686 t f f f;
#X obj 165 720 * 24;
#X obj 165 742 i;
#X obj 165 764 change;
#X text 223 840 send out 24 ticks per beat;
#X obj 425 603 wrap;
#X obj 425 578 + 0;
#X obj 165 786 t b;
#X obj 513 391 f;
#X obj 906 404 f;
#X obj 1024 146 t b b b;
#X obj 1024 124 inlet re-bang;
#X connect 0 0 2 0;
#X connect 1 0 0 1;
#X connect 1 1 0 0;
#X connect 2 0 5 0;
#X connect 3 0 12 0;
#X connect 3 0 13 0;
#X connect 6 0 15 1;
#X connect 6 0 16 1;
#X connect 6 0 17 1;
#X connect 6 0 18 1;
#X connect 8 0 6 0;
#X connect 12 0 30 0;
#X connect 12 1 39 0;
#X connect 13 0 15 0;
#X connect 13 1 73 0;
#X connect 14 0 17 0;
#X connect 14 1 74 0;
#X connect 15 0 37 0;
#X connect 16 0 38 0;
#X connect 17 0 35 0;
#X connect 18 0 36 0;
#X connect 19 0 27 0;
#X connect 20 0 45 0;
#X connect 21 0 44 0;
#X connect 22 0 37 1;
#X connect 22 0 38 1;
#X connect 23 0 65 0;
#X connect 29 0 28 0;
#X connect 30 0 32 0;
#X connect 31 0 46 0;
#X connect 32 0 24 0;
#X connect 33 0 35 1;
#X connect 33 0 36 1;
#X connect 34 0 33 0;
#X connect 35 0 26 0;
#X connect 36 0 10 0;
#X connect 37 0 71 0;
#X connect 38 0 11 0;
#X connect 39 0 31 0;
#X connect 40 0 39 0;
#X connect 41 0 40 0;
#X connect 41 1 30 1;
#X connect 41 1 31 1;
#X connect 42 0 43 0;
#X connect 42 1 32 1;
#X connect 42 1 46 1;
#X connect 43 0 39 0;
#X connect 44 0 42 0;
#X connect 45 0 41 0;
#X connect 46 0 9 0;
#X connect 47 0 62 0;
#X connect 48 0 60 0;
#X connect 48 1 59 0;
#X connect 48 2 50 0;
#X connect 50 0 60 0;
#X connect 51 0 49 0;
#X connect 52 0 53 0;
#X connect 53 0 54 0;
#X connect 53 1 55 0;
#X connect 53 2 56 0;
#X connect 53 3 57 0;
#X connect 53 4 58 0;
#X connect 54 0 51 1;
#X connect 55 0 51 1;
#X connect 56 0 51 1;
#X connect 57 0 51 1;
#X connect 58 0 51 1;
#X connect 59 0 49 0;
#X connect 60 0 51 0;
#X connect 61 0 62 1;
#X connect 62 0 48 0;
#X connect 63 0 64 0;
#X connect 65 0 1 0;
#X connect 65 1 4 0;
#X connect 65 2 66 0;
#X connect 66 0 67 0;
#X connect 67 0 68 0;
#X connect 68 0 72 0;
#X connect 70 0 25 0;
#X connect 71 0 70 0;
#X connect 72 0 63 0;
#X connect 73 0 16 0;
#X connect 74 0 18 0;
#X connect 75 0 39 0;
#X connect 75 1 73 0;
#X connect 75 2 74 0;
#X connect 76 0 75 0;
