#N canvas 419 214 965 793 10;
#X obj 119 50 inlet notes;
#X obj 112 529 list append;
#X text 200 529 store on notes in here;
#X obj 119 96 unpack 0 0 0, f 22;
#X obj 351 205 sel 0, f 12;
#X obj 351 178 f;
#X obj 112 328 pack 0 0 0, f 47;
#X obj 406 239 t b a;
#X obj 112 305 f, f 6;
#X obj 119 122 t b a;
#X obj 351 292 f, f 8;
#X obj 112 575 t a a, f 15;
#X obj 242 633 route -1;
#X obj 242 656 list split 3;
#X obj 263 406 t b a;
#X obj 112 551 route -1, f 19;
#X msg 216 452 -1;
#X obj 533 50 inlet time;
#X obj 533 79 s \$0-time;
#X obj 316 710 r \$0-time;
#X obj 242 738 list append;
#X text 215 47 time \, midinote \, velocity;
#X text 610 50 record clocker;
#X obj 242 763 print lol;
#X obj 49 63 r notes;
#X connect 0 0 3 0;
#X connect 1 0 15 0;
#X connect 3 0 9 0;
#X connect 3 1 6 1;
#X connect 3 1 10 1;
#X connect 3 2 5 1;
#X connect 4 0 10 0;
#X connect 4 1 7 0;
#X connect 5 0 4 0;
#X connect 6 0 1 0;
#X connect 7 0 8 0;
#X connect 7 1 6 2;
#X connect 8 0 6 0;
#X connect 9 0 5 0;
#X connect 9 1 8 1;
#X connect 10 0 14 0;
#X connect 11 1 1 1;
#X connect 12 0 13 0;
#X connect 13 0 20 0;
#X connect 13 1 1 1;
#X connect 14 0 16 0;
#X connect 14 1 12 1;
#X connect 15 0 11 0;
#X connect 15 1 12 0;
#X connect 16 0 1 0;
#X connect 17 0 18 0;
#X connect 19 0 20 1;
#X connect 20 0 23 0;
#X connect 24 0 3 0;
