#N canvas 362 50 1415 817 10;
#X msg 374 461 1;
#X msg 540 698 1;
#X text 280 24 arg1: name of text define that hold the sequence;
#X obj 374 440 t b;
#X obj 374 486 text get \$1;
#X obj 374 380 inlet;
#X obj 572 516 s \$0-Q-amt;
#X text 352 59 q amt: division for q;
#N canvas 36 50 996 748 quantize 0;
#X obj 287 143 text size \$1;
#X obj 287 218 until;
#X obj 287 259 f, f 8;
#X obj 376 259 + 1;
#X obj 287 307 text get \$1;
#X obj 287 349 route note;
#X obj 287 371 unpack 0 0 0, f 47;
#X obj 287 457 pack 0 0 0, f 47;
#X obj 287 499 list prepend note;
#X msg 340 224 2;
#X obj 287 165 - 2;
#X obj 287 329 route list, f 16;
#X obj 287 94 inlet;
#X obj 287 116 t b;
#X obj 287 541 text set \$1-Q, f 74;
#X obj 368 395 r \$0-Q-amt;
#X obj 287 282 t f f f, f 41;
#X obj 571 311 sel, f 10;
#X obj 287 196 t f b f, f 16;
#X obj 571 615 outlet;
#X obj 450 235 - 1;
#N canvas 591 165 1096 714 quantizer 0;
#X obj 208 305 i;
#X obj 445 130 t f f;
#X obj 208 28 inlet;
#X obj 208 501 outlet;
#X obj 445 70 inlet;
#X obj 208 283 + 0.499999;
#X obj 240 107 i;
#X obj 208 50 t f f;
#X obj 208 429 +, f 29;
#X obj 208 175 -;
#X obj 240 81 / 1;
#X obj 208 197 * 100;
#X obj 208 254 / 25;
#X obj 208 327 *, f 14;
#X obj 240 129 t f f;
#X obj 208 349 / 100;
#X connect 0 0 13 0;
#X connect 1 0 12 1;
#X connect 1 1 13 1;
#X connect 2 0 7 0;
#X connect 4 0 1 0;
#X connect 5 0 0 0;
#X connect 6 0 14 0;
#X connect 7 0 9 0;
#X connect 7 1 10 0;
#X connect 8 0 3 0;
#X connect 9 0 11 0;
#X connect 10 0 6 0;
#X connect 11 0 12 0;
#X connect 12 0 5 0;
#X connect 13 0 15 0;
#X connect 14 0 9 1;
#X connect 14 1 8 1;
#X connect 15 0 8 0;
#X restore 287 425 pd quantizer;
#X text 400 139 get size of .txt;
#X text 121 335 only get note-ons;
#X text 150 422 q to the set amt;
#X text 175 491 re-package;
#X text 144 542 re-write;
#X text 625 619 bang the next process when done;
#X connect 0 0 10 0;
#X connect 1 0 2 0;
#X connect 2 0 3 0;
#X connect 2 0 16 0;
#X connect 3 0 2 1;
#X connect 4 0 11 0;
#X connect 5 0 6 0;
#X connect 6 0 21 0;
#X connect 6 1 7 1;
#X connect 6 2 7 2;
#X connect 7 0 8 0;
#X connect 8 0 14 0;
#X connect 9 0 2 1;
#X connect 10 0 18 0;
#X connect 11 0 5 0;
#X connect 12 0 13 0;
#X connect 13 0 0 0;
#X connect 15 0 21 1;
#X connect 16 0 4 0;
#X connect 16 1 14 1;
#X connect 16 2 17 0;
#X connect 17 0 19 0;
#X connect 18 0 1 0;
#X connect 18 1 9 0;
#X connect 18 2 20 0;
#X connect 20 0 17 1;
#X connect 21 0 7 0;
#X restore 54 211 pd quantize the on-notes float;
#N canvas 16 55 1171 989 reorder 0;
#X obj 517 51 inlet;
#X obj 929 775 + 1;
#X msg 893 740 2;
#X obj 767 952 text set \$1-QR, f 56;
#X obj 831 201 text get \$1-Q;
#X obj 831 137 t b b, f 16;
#X obj 831 232 t a b;
#X msg 863 258 1;
#X msg 831 173 1;
#X obj 940 250 t a b;
#X msg 972 276 0;
#X obj 831 322 text set \$1-QR, f 22;
#X obj 403 356 text search \$1-Q 1;
#X obj 403 378 sel -1, f 19;
#X obj 354 437 text search \$1-Q > 1;
#X obj 730 467 text get \$1-Q;
#X obj 579 567 s \$0-retrig;
#X obj 634 530 text set \$1-Q;
#X obj 634 467 t b f;
#X obj 640 704 list split 1;
#X obj 600 680 list split 1;
#X obj 579 437 t b f f, f 22;
#X obj 767 728 t a b;
#X obj 403 327 t f f, f 10;
#X obj 640 760 s \$0-next-f;
#X obj 600 623 text get \$1-Q;
#X obj 421 769 s \$0-retrig;
#X obj 510 722 text set \$1-Q;
#X obj 510 671 t b f;
#X obj 421 599 t b f f, f 26;
#X obj 600 645 t a a, f 18;
#X obj 445 255 r \$0-next-f;
#X msg 938 221 list dummy 1;
#X obj 841 774 f 2, f 8;
#X msg 510 696 list x 10;
#X msg 634 497 list x 10;
#X obj 354 459 sel -1 0 1;
#X obj 533 406 sel 0 1;
#X obj 841 928 outlet;
#X obj 974 804 text size \$1-Q;
#X obj 841 796 t f f;
#X obj 841 856 sel;
#X obj 910 611 t b b;
#X text 890 935 bang when done;
#X obj 974 826 - 1;
#X obj 519 108 t b b b b, f 45;
#X obj 314 242 until;
#X obj 314 194 text size \$1-Q;
#X obj 403 404 f;
#X obj 403 291 f 1;
#X floatatom 292 558 5 0 0 0 - - -, f 5;
#X floatatom 574 339 5 0 0 0 - - -, f 5;
#X msg 403 255 1;
#X connect 0 0 45 0;
#X connect 1 0 33 1;
#X connect 2 0 33 1;
#X connect 4 0 6 0;
#X connect 5 0 8 0;
#X connect 5 1 32 0;
#X connect 6 0 11 0;
#X connect 6 1 7 0;
#X connect 7 0 11 1;
#X connect 8 0 4 0;
#X connect 9 0 11 0;
#X connect 9 1 10 0;
#X connect 10 0 11 1;
#X connect 12 0 13 0;
#X connect 12 0 51 0;
#X connect 13 0 48 0;
#X connect 13 1 37 0;
#X connect 14 0 36 0;
#X connect 14 0 50 0;
#X connect 15 0 22 0;
#X connect 18 0 35 0;
#X connect 18 1 17 1;
#X connect 19 0 24 0;
#X connect 20 1 19 0;
#X connect 21 0 16 0;
#X connect 21 1 18 0;
#X connect 21 2 15 0;
#X connect 22 0 3 0;
#X connect 22 1 33 0;
#X connect 23 0 12 0;
#X connect 23 1 48 1;
#X connect 25 0 30 0;
#X connect 28 0 34 0;
#X connect 28 1 27 1;
#X connect 29 0 26 0;
#X connect 29 1 28 0;
#X connect 29 2 25 0;
#X connect 30 0 20 0;
#X connect 30 1 22 0;
#X connect 31 0 49 1;
#X connect 32 0 9 0;
#X connect 33 0 1 0;
#X connect 33 0 40 0;
#X connect 34 0 27 0;
#X connect 35 0 17 0;
#X connect 36 3 29 0;
#X connect 37 2 21 0;
#X connect 39 0 44 0;
#X connect 40 0 41 0;
#X connect 40 1 3 1;
#X connect 41 0 38 0;
#X connect 42 0 2 0;
#X connect 42 1 39 0;
#X connect 44 0 41 1;
#X connect 45 0 47 0;
#X connect 45 1 52 0;
#X connect 45 2 42 0;
#X connect 45 3 5 0;
#X connect 46 0 49 0;
#X connect 47 0 46 0;
#X connect 48 0 14 0;
#X connect 49 0 23 0;
#X connect 52 0 49 0;
#X restore 54 314 pd reorder by time;
#X obj 352 234 text define \$1-Q;
#X obj 160 115 text tolist \$1;
#X obj 160 139 text fromlist \$1-Q;
#X obj 336 260 text define \$1-QR;
#X msg 336 190 clear;
#X obj 374 415 route round setLength qAmt, f 43;
#X obj 54 36 inlet q!;
#X obj 414 745 text set \$1-QR;
#X msg 414 698 list length \$1;
#X obj 414 588 i;
#X obj 374 511 list split 1;
#X obj 578 696 s length-\$1;
#X obj 414 658 t f b f, f 20;
#X obj 373 141 s \$1-mute;
#X msg 373 115 0;
#X obj 54 414 s \$1-mute;
#X obj 54 336 t b b;
#X msg 54 388 1;
#X obj 520 572 + 1;
#X obj 414 564 + 0.49999;
#X obj 54 81 t b b b b, f 46;
#X text 456 141 mute the player until the quantization is over;
#X text 477 231 clear the q text defines;
#X text 163 167 copy the raw text to the Q txt;
#X text 75 190 q note ons;
#X text 73 285 than \, reorder by time into the QR .txt;
#X text 162 488 round length to nearest beat;
#X text 46 444 unmute the player;
#X obj 414 631 max 2;
#X connect 0 0 4 0;
#X connect 1 0 17 1;
#X connect 3 0 0 0;
#X connect 4 0 20 0;
#X connect 5 0 15 0;
#X connect 8 0 9 0;
#X connect 9 0 26 0;
#X connect 11 0 12 0;
#X connect 14 0 10 0;
#X connect 14 0 13 0;
#X connect 15 0 3 0;
#X connect 15 1 28 0;
#X connect 15 2 6 0;
#X connect 16 0 30 0;
#X connect 18 0 17 0;
#X connect 19 0 38 0;
#X connect 20 1 29 0;
#X connect 22 0 18 0;
#X connect 22 1 1 0;
#X connect 22 2 21 0;
#X connect 24 0 23 0;
#X connect 26 0 27 0;
#X connect 26 1 3 0;
#X connect 27 0 25 0;
#X connect 28 0 38 0;
#X connect 29 0 19 0;
#X connect 30 0 8 0;
#X connect 30 1 11 0;
#X connect 30 2 14 0;
#X connect 30 3 24 0;
#X connect 38 0 22 0;
