#N canvas 116 328 1599 635 10;
#X obj 142 39 inlet aux;
#N canvas 6 50 1163 752 print-grid 0;
#X obj 606 425 s oscOut;
#X msg 566 355 /oled/gFlip 3;
#X msg 655 328 /oled/gFillArea 3 0 8 128 56 0;
#X text 480 480 Line \, start x \, y \, end x \, y \, color (0 or 1)
;
#X obj 370 249 f;
#X obj 403 249 + 1;
#X obj 370 214 until;
#X msg 414 215 0;
#X obj 370 179 t a b;
#X msg 370 156 6;
#X obj 370 271 * 11;
#X msg 351 353 /oled/gLine 3 0 \$1 127 \$1 1;
#X obj 370 293 + 8;
#X msg 745 361 /oled/gClear 3 1;
#X obj 457 243 f;
#X obj 490 243 + 1;
#X obj 457 208 until;
#X msg 501 209 0;
#X obj 457 173 t a b;
#X msg 457 150 3;
#X msg 459 315 /oled/gLine 3 \$1 9 \$1 63 1;
#X obj 457 288 min 127;
#X obj 458 264 * 64;
#X obj 406 101 t b b b b;
#X obj 431 49 inlet;
#X connect 1 0 0 0;
#X connect 2 0 0 0;
#X connect 4 0 5 0;
#X connect 4 0 10 0;
#X connect 5 0 4 1;
#X connect 6 0 4 0;
#X connect 7 0 4 1;
#X connect 8 0 6 0;
#X connect 8 1 7 0;
#X connect 9 0 8 0;
#X connect 10 0 12 0;
#X connect 11 0 0 0;
#X connect 12 0 11 0;
#X connect 13 0 0 0;
#X connect 14 0 15 0;
#X connect 14 0 22 0;
#X connect 15 0 14 1;
#X connect 16 0 14 0;
#X connect 17 0 14 1;
#X connect 18 0 16 0;
#X connect 18 1 17 0;
#X connect 19 0 18 0;
#X connect 20 0 0 0;
#X connect 21 0 20 0;
#X connect 22 0 21 0;
#X connect 23 0 1 0;
#X connect 23 1 9 0;
#X connect 23 2 19 0;
#X connect 23 3 2 0;
#X connect 24 0 23 0;
#X restore 223 279 pd print-grid;
#N canvas 18 50 884 764 rec-module 0;
#X obj 33 27 inlet trigger;
#X obj 33 56 sel 0, f 8;
#X obj 86 79 t b;
#X obj 33 271 s cgSc-\$1-rec;
#X obj 347 657 s oscOut;
#X msg 393 628 /oled/gFlip 3;
#X obj 347 379 symbol;
#X obj 347 471 t b a a b;
#X obj 347 401 t b s;
#X obj 395 520 list;
#X msg 403 494 1;
#X obj 395 542 route 1;
#X obj 347 84 r seq3-\$1-actions;
#X msg 347 231 1;
#X obj 393 233 t b;
#X msg 393 258 0;
#X obj 292 58 r \$0-print!;
#X obj 292 80 t b;
#X obj 347 116 f;
#X msg 388 337 Armd;
#X msg 347 337 Off;
#X msg 429 337 On;
#X obj 347 209 sel 2 3;
#X obj 347 294 sel 0 1 2, f 15;
#X msg 357 259 2;
#X obj 347 436 pack 2 22 s;
#X msg 395 572 /oled/gPrintln 3 \$1 \$2 8 0 Rec:\$3;
#X msg 347 598 /oled/gPrintln 3 \$1 \$2 8 1 Rec:\$3;
#X obj 347 161 spigot 0;
#X obj 400 131 r cgSc-\$1-aux;
#X obj 491 425 loadbang;
#X msg 491 447 0 0 0;
#X connect 0 0 1 0;
#X connect 1 1 2 0;
#X connect 2 0 3 0;
#X connect 5 0 4 0;
#X connect 6 0 8 0;
#X connect 7 0 5 0;
#X connect 7 1 27 0;
#X connect 7 2 9 1;
#X connect 7 3 10 0;
#X connect 8 0 25 0;
#X connect 8 1 25 2;
#X connect 9 0 11 0;
#X connect 10 0 9 0;
#X connect 11 0 26 0;
#X connect 12 0 18 0;
#X connect 13 0 23 0;
#X connect 14 0 15 0;
#X connect 15 0 23 0;
#X connect 16 0 17 0;
#X connect 17 0 18 0;
#X connect 18 0 28 0;
#X connect 19 0 6 0;
#X connect 20 0 6 0;
#X connect 21 0 6 0;
#X connect 22 0 13 0;
#X connect 22 1 24 0;
#X connect 22 2 14 0;
#X connect 23 0 20 0;
#X connect 23 1 19 0;
#X connect 23 2 21 0;
#X connect 24 0 23 0;
#X connect 25 0 7 0;
#X connect 26 0 4 0;
#X connect 27 0 4 0;
#X connect 28 0 22 0;
#X connect 29 0 28 1;
#X connect 30 0 31 0;
#X connect 31 0 9 1;
#X restore 489 402 pd rec-module;
#N canvas 22 50 884 764 play-module 0;
#X obj 321 633 s oscOut;
#X msg 367 604 /oled/gFlip 3;
#X obj 321 271 sel 0 1;
#X obj 321 355 symbol;
#X obj 321 447 t b a a b;
#X obj 321 377 t b s;
#X obj 369 496 list;
#X msg 377 470 1;
#X obj 369 518 route 1;
#X msg 368 549 /oled/gPrintln 3 \$1 \$2 8 0 Seq:\$3;
#X msg 321 575 /oled/gPrintln 3 \$1 \$2 8 1 Seq:\$3;
#X msg 321 313 Stop;
#X msg 362 313 Play;
#X obj 33 27 inlet trigger;
#X obj 33 56 sel 0, f 8;
#X obj 86 79 t b;
#X obj 33 271 s cgSc-\$1-play;
#X obj 321 412 pack 2 11 s;
#X obj 321 40 r seq3-\$1-actions;
#X obj 321 185 sel 1, f 7;
#X msg 321 207 1;
#X obj 367 209 t b;
#X msg 367 234 0;
#X obj 266 14 r \$0-print!;
#X obj 266 36 t b;
#X obj 321 82 f;
#X obj 321 121 spigot 0;
#X obj 374 91 r cgSc-\$1-aux;
#X obj 491 425 loadbang;
#X msg 491 447 0 0 0;
#X connect 1 0 0 0;
#X connect 2 0 11 0;
#X connect 2 1 12 0;
#X connect 3 0 5 0;
#X connect 4 0 1 0;
#X connect 4 1 10 0;
#X connect 4 2 6 1;
#X connect 4 3 7 0;
#X connect 5 0 17 0;
#X connect 5 1 17 2;
#X connect 6 0 8 0;
#X connect 7 0 6 0;
#X connect 8 0 9 0;
#X connect 9 0 0 0;
#X connect 10 0 0 0;
#X connect 11 0 3 0;
#X connect 12 0 3 0;
#X connect 13 0 14 0;
#X connect 14 1 15 0;
#X connect 15 0 16 0;
#X connect 17 0 4 0;
#X connect 18 0 25 0;
#X connect 19 0 20 0;
#X connect 19 1 21 0;
#X connect 20 0 2 0;
#X connect 21 0 22 0;
#X connect 22 0 2 0;
#X connect 23 0 24 0;
#X connect 24 0 25 0;
#X connect 25 0 26 0;
#X connect 26 0 19 0;
#X connect 27 0 26 1;
#X connect 28 0 29 0;
#X connect 29 0 6 1;
#X restore 433 434 pd play-module;
#X obj 142 173 sel 1 0, f 16;
#X obj 433 329 route 61 63 66 68 70 73 75 78 80 82, f 81;
#X obj 142 307 s \$0-print!;
#X text 204 201 go back to home screen;
#N canvas 23 50 1117 803 latch-module 0;
#X obj 33 27 inlet trigger;
#X obj 33 56 sel 0, f 8;
#X obj 86 79 t b;
#X obj 34 278 s cgSc-\$1-latch;
#X obj 348 640 s oscOut;
#X msg 394 611 /oled/gFlip 3;
#X obj 348 278 sel 0 1;
#X obj 348 362 symbol;
#X obj 348 454 t b a a b;
#X obj 348 384 t b s;
#X obj 396 503 list;
#X msg 404 477 1;
#X obj 396 525 route 1;
#X obj 348 97 r seq3-\$1-actions;
#X msg 348 214 1;
#X obj 394 216 t b;
#X msg 394 241 0;
#X obj 293 71 r \$0-print!;
#X obj 293 93 t b;
#X obj 348 139 f;
#X obj 348 192 sel 4, f 7;
#X msg 389 320 On;
#X msg 348 320 Off;
#X msg 395 556 /oled/gPrintln 3 \$1 \$2 8 0 Ltch:\$3;
#X msg 349 582 /oled/gPrintln 3 \$1 \$2 8 1 Ltch:\$3;
#X obj 348 161 spigot 0;
#X obj 401 131 r cgSc-\$1-aux;
#X obj 348 419 pack 2 33 s;
#X obj 482 435 loadbang;
#X msg 482 457 0 0 0;
#X connect 0 0 1 0;
#X connect 1 1 2 0;
#X connect 2 0 3 0;
#X connect 5 0 4 0;
#X connect 6 0 22 0;
#X connect 6 1 21 0;
#X connect 7 0 9 0;
#X connect 8 0 5 0;
#X connect 8 1 24 0;
#X connect 8 2 10 1;
#X connect 8 3 11 0;
#X connect 9 0 27 0;
#X connect 9 1 27 2;
#X connect 10 0 12 0;
#X connect 11 0 10 0;
#X connect 12 0 23 0;
#X connect 13 0 19 0;
#X connect 14 0 6 0;
#X connect 15 0 16 0;
#X connect 16 0 6 0;
#X connect 17 0 18 0;
#X connect 18 0 19 0;
#X connect 19 0 25 0;
#X connect 20 0 14 0;
#X connect 20 1 15 0;
#X connect 21 0 7 0;
#X connect 22 0 7 0;
#X connect 23 0 4 0;
#X connect 24 0 4 0;
#X connect 25 0 20 0;
#X connect 26 0 25 1;
#X connect 27 0 8 0;
#X connect 28 0 29 0;
#X connect 29 0 10 1;
#X restore 545 373 pd latch-module;
#N canvas 904 444 871 385 re-print 0;
#X obj 96 30 inlet;
#X text 614 82 clear the screen;
#X msg 88 89 /oled/gFillArea 3 0 8 128 56 0;
#X obj 88 111 s oscOut;
#X connect 0 0 2 0;
#X connect 2 0 3 0;
#X restore 196 218 pd re-print;
#X obj 433 20 inlet notes;
#X obj 553 142 ==;
#N canvas 5 50 450 300 just-note-offs 0;
#X obj 67 16 inlet;
#X obj 67 38 unpack;
#X obj 67 89 sel 0;
#X obj 67 60 swap, f 6;
#X obj 67 116 f, f 7;
#X obj 67 138 pack 0 0;
#X obj 67 160 outlet;
#X connect 0 0 1 0;
#X connect 1 0 3 0;
#X connect 1 1 3 1;
#X connect 2 0 4 0;
#X connect 3 0 2 0;
#X connect 3 1 4 1;
#X connect 4 0 5 0;
#X connect 5 0 6 0;
#X restore 540 249 pd just-note-offs;
#X obj 514 290 outlet;
#X obj 433 42 t a a, f 12;
#X text 717 310 top line of keys "the black keys";
#X text 668 248 so notes dont get stuck;
#X obj 142 81 t f f f f, f 87;
#X obj 799 214 outlet mute-print;
#X obj 514 169 spigot 1;
#X obj 433 219 spigot 0;
#X obj 142 254 t b b, f 12;
#X obj 142 103 t f f;
#X obj 174 131 s cgSc-\$1-aux;
#X obj 748 151 del 1;
#X obj 748 115 sel 0 1, f 15;
#X msg 748 173 0;
#X msg 799 145 1;
#N canvas 687 528 706 516 sine 0;
#X obj 32 46 inlet;
#X obj 32 68 sel 0;
#X msg 416 165 Off;
#X msg 384 165 On;
#X obj 404 482 s oscOut;
#X msg 449 453 /oled/gFlip 3;
#X obj 384 204 symbol;
#X obj 384 296 t b a a b;
#X obj 384 226 t b s;
#X obj 444 345 list, f 12;
#X msg 444 319 1;
#X obj 444 367 route 1;
#X msg 444 398 /oled/gPrintln 3 \$1 \$2 8 0 Sine:\$3;
#X msg 404 424 /oled/gPrintln 3 \$1 \$2 8 1 Sine:\$3;
#X obj 384 261 pack 66 11 s;
#X obj 384 26 r \$0-print!;
#X obj 384 48 t b;
#X obj 384 79 f 0;
#X obj 532 285 loadbang;
#X msg 532 307 0 0 0;
#X obj 26 410 f;
#X obj 60 410 + 1;
#X obj 26 436 % 2;
#X obj 26 458 t f f;
#X obj 26 505 s cgSc-\$1-sine;
#X obj 384 119 sel 1 0;
#X obj 26 480 i;
#X obj 149 97 r cgSc-\$1-mswitch;
#X obj 149 119 ==;
#X obj 96 162 spigot 0;
#X obj 26 162 spigot 1;
#X obj 64 95 t b b;
#X obj 128 211 s \$0-off;
#X obj 96 184 t b b;
#X msg 96 250 1;
#X obj 205 300 r \$0-off;
#X msg 205 322 0;
#X obj 127 275 r cgSc-\$1-start-sine;
#X connect 0 0 1 0;
#X connect 1 1 31 0;
#X connect 2 0 6 0;
#X connect 3 0 6 0;
#X connect 5 0 4 0;
#X connect 6 0 8 0;
#X connect 7 0 5 0;
#X connect 7 1 13 0;
#X connect 7 2 9 1;
#X connect 7 3 10 0;
#X connect 8 0 14 0;
#X connect 8 1 14 2;
#X connect 9 0 11 0;
#X connect 10 0 9 0;
#X connect 11 0 12 0;
#X connect 12 0 4 0;
#X connect 13 0 4 0;
#X connect 14 0 7 0;
#X connect 15 0 16 0;
#X connect 16 0 17 0;
#X connect 17 0 25 0;
#X connect 18 0 19 0;
#X connect 19 0 9 1;
#X connect 20 0 21 0;
#X connect 20 0 22 0;
#X connect 21 0 20 1;
#X connect 22 0 23 0;
#X connect 23 0 26 0;
#X connect 23 1 17 0;
#X connect 25 0 3 0;
#X connect 25 1 2 0;
#X connect 26 0 24 0;
#X connect 27 0 28 0;
#X connect 27 0 30 1;
#X connect 28 0 29 1;
#X connect 29 0 33 0;
#X connect 30 0 20 0;
#X connect 31 0 30 0;
#X connect 31 1 29 0;
#X connect 33 0 34 0;
#X connect 33 1 32 0;
#X connect 34 0 20 0;
#X connect 35 0 36 0;
#X connect 36 0 20 0;
#X connect 37 0 20 0;
#X restore 716 557 pd sine;
#N canvas 632 235 1021 634 switch 0;
#X obj 43 26 inlet;
#X obj 43 48 sel 0;
#X msg 352 182 Off;
#X msg 320 182 On;
#X obj 321 500 s oscOut;
#X msg 366 470 /oled/gFlip 3;
#X obj 320 221 symbol;
#X obj 320 313 t b a a b;
#X obj 320 243 t b s;
#X obj 368 362 list;
#X msg 376 336 1;
#X obj 368 384 route 1;
#X obj 202 8 r \$0-print!;
#X obj 202 30 t b;
#X obj 320 96 f 0;
#X obj 442 301 loadbang;
#X msg 442 323 0 0 0;
#X obj 114 89 t b;
#X obj 148 116 + 1;
#X obj 144 207 % 2;
#X obj 144 229 t f f;
#X obj 321 135 sel 1 0;
#X obj 114 116 f 1;
#X obj 144 251 i;
#X obj 372 0 r cgSc-\$1-start-switch;
#X obj 144 284 s cgSc-\$1-mswitch;
#X msg 367 414 /oled/gPrintln 3 \$1 \$2 8 0 Uni:\$3;
#X msg 321 441 /oled/gPrintln 3 \$1 \$2 8 1 Uni:\$3;
#X obj 320 277 pack 66 55 s;
#X connect 0 0 1 0;
#X connect 1 1 17 0;
#X connect 2 0 6 0;
#X connect 3 0 6 0;
#X connect 5 0 4 0;
#X connect 6 0 8 0;
#X connect 7 0 5 0;
#X connect 7 1 27 0;
#X connect 7 2 9 1;
#X connect 7 3 10 0;
#X connect 8 0 28 0;
#X connect 8 1 28 2;
#X connect 9 0 11 0;
#X connect 10 0 9 0;
#X connect 11 0 26 0;
#X connect 12 0 13 0;
#X connect 13 0 14 0;
#X connect 14 0 21 0;
#X connect 15 0 16 0;
#X connect 16 0 9 1;
#X connect 17 0 22 0;
#X connect 18 0 22 1;
#X connect 18 0 19 0;
#X connect 19 0 20 0;
#X connect 20 0 23 0;
#X connect 20 1 14 0;
#X connect 21 0 3 0;
#X connect 21 1 2 0;
#X connect 22 0 18 0;
#X connect 23 0 25 0;
#X connect 24 0 22 0;
#X connect 26 0 4 0;
#X connect 27 0 4 0;
#X connect 28 0 7 0;
#X restore 963 435 pd switch;
#N canvas 594 284 841 588 square 0;
#X obj 32 46 inlet;
#X obj 32 68 sel 0;
#X msg 416 165 Off;
#X msg 384 165 On;
#X obj 404 482 s oscOut;
#X msg 449 453 /oled/gFlip 3;
#X obj 384 204 symbol;
#X obj 384 296 t b a a b;
#X obj 384 226 t b s;
#X obj 444 345 list, f 12;
#X msg 444 319 1;
#X obj 444 367 route 1;
#X obj 384 26 r \$0-print!;
#X obj 384 48 t b;
#X obj 384 79 f 0;
#X obj 532 285 loadbang;
#X msg 532 307 0 0 0;
#X obj 26 430 f;
#X obj 60 430 + 1;
#X obj 26 456 % 2;
#X obj 26 478 t f f;
#X obj 384 119 sel 1 0;
#X obj 26 500 i;
#X obj 149 97 r cgSc-\$1-mswitch;
#X obj 149 119 ==;
#X obj 96 162 spigot 0;
#X obj 26 162 spigot 1;
#X obj 64 95 t b b;
#X obj 128 211 s \$0-off;
#X obj 96 184 t b b;
#X msg 96 250 1;
#X obj 205 300 r \$0-off;
#X msg 205 322 0;
#X obj 26 525 s cgSc-\$1-sqr;
#X msg 444 398 /oled/gPrintln 3 \$1 \$2 8 0 Sqr:\$3;
#X msg 404 424 /oled/gPrintln 3 \$1 \$2 8 1 Sqr:\$3;
#X obj 384 261 pack 66 22 s;
#X obj 127 274 r cgSc-\$1-start-sqr;
#X connect 0 0 1 0;
#X connect 1 1 27 0;
#X connect 2 0 6 0;
#X connect 3 0 6 0;
#X connect 5 0 4 0;
#X connect 6 0 8 0;
#X connect 7 0 5 0;
#X connect 7 1 35 0;
#X connect 7 2 9 1;
#X connect 7 3 10 0;
#X connect 8 0 36 0;
#X connect 8 1 36 2;
#X connect 9 0 11 0;
#X connect 10 0 9 0;
#X connect 11 0 34 0;
#X connect 12 0 13 0;
#X connect 13 0 14 0;
#X connect 14 0 21 0;
#X connect 15 0 16 0;
#X connect 16 0 9 1;
#X connect 17 0 18 0;
#X connect 17 0 19 0;
#X connect 18 0 17 1;
#X connect 19 0 20 0;
#X connect 20 0 22 0;
#X connect 20 1 14 0;
#X connect 21 0 3 0;
#X connect 21 1 2 0;
#X connect 22 0 33 0;
#X connect 23 0 24 0;
#X connect 23 0 26 1;
#X connect 24 0 25 1;
#X connect 25 0 29 0;
#X connect 26 0 17 0;
#X connect 27 0 26 0;
#X connect 27 1 25 0;
#X connect 29 0 30 0;
#X connect 29 1 28 0;
#X connect 30 0 17 0;
#X connect 31 0 32 0;
#X connect 32 0 17 0;
#X connect 34 0 4 0;
#X connect 35 0 4 0;
#X connect 36 0 7 0;
#X connect 37 0 17 0;
#X restore 759 472 pd square;
#N canvas 593 287 841 588 saw 0;
#X obj 32 46 inlet;
#X obj 32 68 sel 0;
#X msg 416 165 Off;
#X msg 384 165 On;
#X obj 404 482 s oscOut;
#X msg 449 453 /oled/gFlip 3;
#X obj 384 204 symbol;
#X obj 384 296 t b a a b;
#X obj 384 226 t b s;
#X obj 444 345 list, f 12;
#X msg 444 319 1;
#X obj 444 367 route 1;
#X obj 384 26 r \$0-print!;
#X obj 384 48 t b;
#X obj 384 79 f 0;
#X obj 532 285 loadbang;
#X msg 532 307 0 0 0;
#X obj 26 370 f;
#X obj 60 370 + 1;
#X obj 26 396 % 2;
#X obj 26 418 t f f;
#X obj 384 119 sel 1 0;
#X obj 26 440 i;
#X obj 149 97 r cgSc-\$1-mswitch;
#X obj 149 119 ==;
#X obj 96 162 spigot 0;
#X obj 26 162 spigot 1;
#X obj 64 95 t b b;
#X obj 128 211 s \$0-off;
#X obj 96 184 t b b;
#X msg 96 250 1;
#X obj 205 300 r \$0-off;
#X msg 205 322 0;
#X obj 27 464 s cgSc-\$1-saw;
#X msg 404 424 /oled/gPrintln 3 \$1 \$2 8 1 Saw:\$3;
#X msg 444 398 /oled/gPrintln 3 \$1 \$2 8 0 Saw:\$3;
#X obj 384 261 pack 66 33 s;
#X obj 127 275 r cgSc-\$1-start-saw;
#X connect 0 0 1 0;
#X connect 1 1 27 0;
#X connect 2 0 6 0;
#X connect 3 0 6 0;
#X connect 5 0 4 0;
#X connect 6 0 8 0;
#X connect 7 0 5 0;
#X connect 7 1 34 0;
#X connect 7 2 9 1;
#X connect 7 3 10 0;
#X connect 8 0 36 0;
#X connect 8 1 36 2;
#X connect 9 0 11 0;
#X connect 10 0 9 0;
#X connect 11 0 35 0;
#X connect 12 0 13 0;
#X connect 13 0 14 0;
#X connect 14 0 21 0;
#X connect 15 0 16 0;
#X connect 16 0 9 1;
#X connect 17 0 18 0;
#X connect 17 0 19 0;
#X connect 18 0 17 1;
#X connect 19 0 20 0;
#X connect 20 0 22 0;
#X connect 20 1 14 0;
#X connect 21 0 3 0;
#X connect 21 1 2 0;
#X connect 22 0 33 0;
#X connect 23 0 24 0;
#X connect 23 0 26 1;
#X connect 24 0 25 1;
#X connect 25 0 29 0;
#X connect 26 0 17 0;
#X connect 27 0 26 0;
#X connect 27 1 25 0;
#X connect 29 0 30 0;
#X connect 29 1 28 0;
#X connect 30 0 17 0;
#X connect 31 0 32 0;
#X connect 32 0 17 0;
#X connect 34 0 4 0;
#X connect 35 0 4 0;
#X connect 36 0 7 0;
#X connect 37 0 17 0;
#X restore 830 447 pd saw;
#N canvas 596 278 841 588 tri 0;
#X obj 32 46 inlet;
#X obj 32 68 sel 0;
#X msg 416 165 Off;
#X msg 384 165 On;
#X obj 404 482 s oscOut;
#X msg 449 453 /oled/gFlip 3;
#X obj 384 204 symbol;
#X obj 384 296 t b a a b;
#X obj 384 226 t b s;
#X obj 444 345 list, f 12;
#X msg 444 319 1;
#X obj 444 367 route 1;
#X obj 384 26 r \$0-print!;
#X obj 384 48 t b;
#X obj 384 79 f 0;
#X obj 532 285 loadbang;
#X msg 532 307 0 0 0;
#X obj 26 370 f;
#X obj 60 370 + 1;
#X obj 26 396 % 2;
#X obj 26 418 t f f;
#X obj 384 119 sel 1 0;
#X obj 26 440 i;
#X obj 149 97 r cgSc-\$1-mswitch;
#X obj 149 119 ==;
#X obj 96 162 spigot 0;
#X obj 26 162 spigot 1;
#X obj 64 95 t b b;
#X obj 128 211 s \$0-off;
#X obj 96 184 t b b;
#X msg 96 250 1;
#X obj 205 300 r \$0-off;
#X msg 205 322 0;
#X msg 444 398 /oled/gPrintln 3 \$1 \$2 8 0 Tri:\$3;
#X msg 404 423 /oled/gPrintln 3 \$1 \$2 8 1 Tri:\$3;
#X obj 27 464 s cgSc-\$1-tri;
#X obj 384 261 pack 66 44 s;
#X obj 127 275 r cgSc-\$1-start-tri;
#X connect 0 0 1 0;
#X connect 1 1 27 0;
#X connect 2 0 6 0;
#X connect 3 0 6 0;
#X connect 5 0 4 0;
#X connect 6 0 8 0;
#X connect 7 0 5 0;
#X connect 7 1 34 0;
#X connect 7 2 9 1;
#X connect 7 3 10 0;
#X connect 8 0 36 0;
#X connect 8 1 36 2;
#X connect 9 0 11 0;
#X connect 10 0 9 0;
#X connect 11 0 33 0;
#X connect 12 0 13 0;
#X connect 13 0 14 0;
#X connect 14 0 21 0;
#X connect 15 0 16 0;
#X connect 16 0 9 1;
#X connect 17 0 18 0;
#X connect 17 0 19 0;
#X connect 18 0 17 1;
#X connect 19 0 20 0;
#X connect 20 0 22 0;
#X connect 20 1 14 0;
#X connect 21 0 3 0;
#X connect 21 1 2 0;
#X connect 22 0 35 0;
#X connect 23 0 24 0;
#X connect 23 0 26 1;
#X connect 24 0 25 1;
#X connect 25 0 29 0;
#X connect 26 0 17 0;
#X connect 27 0 26 0;
#X connect 27 1 25 0;
#X connect 29 0 30 0;
#X connect 29 1 28 0;
#X connect 30 0 17 0;
#X connect 31 0 32 0;
#X connect 32 0 17 0;
#X connect 33 0 4 0;
#X connect 34 0 4 0;
#X connect 36 0 7 0;
#X connect 37 0 17 0;
#X restore 901 450 pd tri;
#X connect 0 0 17 0;
#X connect 4 0 21 0;
#X connect 4 1 9 0;
#X connect 5 0 3 0;
#X connect 5 1 2 0;
#X connect 5 2 8 0;
#X connect 5 5 28 0;
#X connect 5 6 30 0;
#X connect 5 7 31 0;
#X connect 5 8 32 0;
#X connect 5 9 29 0;
#X connect 10 0 14 0;
#X connect 11 0 19 1;
#X connect 12 0 13 0;
#X connect 14 0 20 0;
#X connect 14 1 19 0;
#X connect 17 0 22 0;
#X connect 17 1 20 1;
#X connect 17 2 11 0;
#X connect 17 3 25 0;
#X connect 19 0 13 0;
#X connect 20 0 5 0;
#X connect 20 0 12 0;
#X connect 21 0 6 0;
#X connect 21 1 1 0;
#X connect 22 0 4 0;
#X connect 22 1 23 0;
#X connect 24 0 26 0;
#X connect 25 0 24 0;
#X connect 25 1 27 0;
#X connect 26 0 18 0;
#X connect 27 0 18 0;
