#N canvas 527 243 1077 554 10;
#X obj 142 39 inlet aux;
#N canvas 6 50 1163 752 print-grid 0;
#X obj 606 425 s oscOut;
#X msg 566 355 /oled/gFlip 3;
#X msg 655 328 /oled/gFillArea 3 0 8 128 56 0;
#X text 480 480 Line \, start x \, y \, end x \, y \, color (0 or 1)
;
#X obj 370 249 f;
#X obj 403 249 + 1;
#X obj 370 214 until;
#X msg 414 215 0;
#X obj 370 179 t a b;
#X msg 370 156 6;
#X obj 370 271 * 11;
#X msg 351 353 /oled/gLine 3 0 \$1 127 \$1 1;
#X obj 370 293 + 8;
#X msg 745 361 /oled/gClear 3 1;
#X obj 457 243 f;
#X obj 490 243 + 1;
#X obj 457 208 until;
#X msg 501 209 0;
#X obj 457 173 t a b;
#X msg 457 150 3;
#X msg 459 315 /oled/gLine 3 \$1 9 \$1 63 1;
#X obj 457 288 min 127;
#X obj 458 264 * 64;
#X obj 406 101 t b b b b;
#X obj 431 49 inlet;
#X connect 1 0 0 0;
#X connect 2 0 0 0;
#X connect 4 0 5 0;
#X connect 4 0 10 0;
#X connect 5 0 4 1;
#X connect 6 0 4 0;
#X connect 7 0 4 1;
#X connect 8 0 6 0;
#X connect 8 1 7 0;
#X connect 9 0 8 0;
#X connect 10 0 12 0;
#X connect 11 0 0 0;
#X connect 12 0 11 0;
#X connect 13 0 0 0;
#X connect 14 0 15 0;
#X connect 14 0 22 0;
#X connect 15 0 14 1;
#X connect 16 0 14 0;
#X connect 17 0 14 1;
#X connect 18 0 16 0;
#X connect 18 1 17 0;
#X connect 19 0 18 0;
#X connect 20 0 0 0;
#X connect 21 0 20 0;
#X connect 22 0 21 0;
#X connect 23 0 1 0;
#X connect 23 1 9 0;
#X connect 23 2 19 0;
#X connect 23 3 2 0;
#X connect 24 0 23 0;
#X restore 174 427 pd print-grid;
#X text 605 498 Print line \, x \, y \, size \, color \, stuff to print
;
#X msg 386 498 /oled/gPrintln 3 0 0 8 1 Small;
#N canvas 17 50 884 764 rec-module 0;
#X obj 33 27 inlet trigger;
#X obj 33 56 sel 0, f 8;
#X obj 86 79 t b;
#X obj 33 271 s cgSc-\$1-rec;
#X obj 347 657 s oscOut;
#X msg 393 628 /oled/gFlip 3;
#X obj 347 379 symbol;
#X obj 347 471 t b a a b;
#X obj 347 401 t b s;
#X obj 395 520 list;
#X msg 403 494 1;
#X obj 395 542 route 1;
#X obj 347 84 r seq3-\$1-actions;
#X msg 347 231 1;
#X obj 393 233 t b;
#X msg 393 258 0;
#X obj 292 58 r \$0-print!;
#X obj 292 80 t b;
#X obj 347 116 f;
#X msg 388 337 Armd;
#X msg 347 337 Off;
#X msg 429 337 On;
#X obj 347 209 sel 2 3;
#X obj 347 294 sel 0 1 2, f 15;
#X msg 357 259 2;
#X obj 347 436 pack 2 22 s;
#X msg 395 572 /oled/gPrintln 3 \$1 \$2 8 0 Rec:\$3;
#X msg 347 598 /oled/gPrintln 3 \$1 \$2 8 1 Rec:\$3;
#X obj 347 161 spigot 0;
#X obj 400 131 r cgSc-\$1-aux;
#X connect 0 0 1 0;
#X connect 1 1 2 0;
#X connect 2 0 3 0;
#X connect 5 0 4 0;
#X connect 6 0 8 0;
#X connect 7 0 5 0;
#X connect 7 1 27 0;
#X connect 7 2 9 1;
#X connect 7 3 10 0;
#X connect 8 0 25 0;
#X connect 8 1 25 2;
#X connect 9 0 11 0;
#X connect 10 0 9 0;
#X connect 11 0 26 0;
#X connect 12 0 18 0;
#X connect 13 0 23 0;
#X connect 14 0 15 0;
#X connect 15 0 23 0;
#X connect 16 0 17 0;
#X connect 17 0 18 0;
#X connect 18 0 28 0;
#X connect 19 0 6 0;
#X connect 20 0 6 0;
#X connect 21 0 6 0;
#X connect 22 0 13 0;
#X connect 22 1 24 0;
#X connect 22 2 14 0;
#X connect 23 0 20 0;
#X connect 23 1 19 0;
#X connect 23 2 21 0;
#X connect 24 0 23 0;
#X connect 25 0 7 0;
#X connect 26 0 4 0;
#X connect 27 0 4 0;
#X connect 28 0 22 0;
#X connect 29 0 28 1;
#X restore 474 402 pd rec-module;
#N canvas 19 50 884 764 play-module 0;
#X obj 321 633 s oscOut;
#X msg 367 604 /oled/gFlip 3;
#X obj 321 271 sel 0 1;
#X obj 321 355 symbol;
#X obj 321 447 t b a a b;
#X obj 321 377 t b s;
#X obj 369 496 list;
#X msg 377 470 1;
#X obj 369 518 route 1;
#X msg 368 549 /oled/gPrintln 3 \$1 \$2 8 0 Seq:\$3;
#X msg 321 575 /oled/gPrintln 3 \$1 \$2 8 1 Seq:\$3;
#X msg 321 313 Stop;
#X msg 362 313 Play;
#X obj 33 27 inlet trigger;
#X obj 33 56 sel 0, f 8;
#X obj 86 79 t b;
#X obj 33 271 s cgSc-\$1-play;
#X obj 321 412 pack 2 11 s;
#X obj 321 40 r seq3-\$1-actions;
#X obj 321 185 sel 1, f 7;
#X msg 321 207 1;
#X obj 367 209 t b;
#X msg 367 234 0;
#X obj 266 14 r \$0-print!;
#X obj 266 36 t b;
#X obj 321 82 f;
#X obj 321 121 spigot 0;
#X obj 374 91 r cgSc-\$1-aux;
#X connect 1 0 0 0;
#X connect 2 0 11 0;
#X connect 2 1 12 0;
#X connect 3 0 5 0;
#X connect 4 0 1 0;
#X connect 4 1 10 0;
#X connect 4 2 6 1;
#X connect 4 3 7 0;
#X connect 5 0 17 0;
#X connect 5 1 17 2;
#X connect 6 0 8 0;
#X connect 7 0 6 0;
#X connect 8 0 9 0;
#X connect 9 0 0 0;
#X connect 10 0 0 0;
#X connect 11 0 3 0;
#X connect 12 0 3 0;
#X connect 13 0 14 0;
#X connect 14 1 15 0;
#X connect 15 0 16 0;
#X connect 17 0 4 0;
#X connect 18 0 25 0;
#X connect 19 0 20 0;
#X connect 19 1 21 0;
#X connect 20 0 2 0;
#X connect 21 0 22 0;
#X connect 22 0 2 0;
#X connect 23 0 24 0;
#X connect 24 0 25 0;
#X connect 25 0 26 0;
#X connect 26 0 19 0;
#X connect 27 0 26 1;
#X restore 433 434 pd play-module;
#X obj 142 173 sel 1 0, f 16;
#X obj 433 329 route 61 63 66 68 70 73 75 78 80 82, f 59;
#X obj 82 397 s \$0-print!;
#X text 199 261 go back to home screen;
#N canvas 17 50 1117 803 latch-module 0;
#X obj 33 27 inlet trigger;
#X obj 33 56 sel 0, f 8;
#X obj 86 79 t b;
#X obj 33 279 s cgSc-\$1-latch;
#X obj 348 640 s oscOut;
#X msg 394 611 /oled/gFlip 3;
#X obj 348 278 sel 0 1;
#X obj 348 362 symbol;
#X obj 348 454 t b a a b;
#X obj 348 384 t b s;
#X obj 396 503 list;
#X msg 404 477 1;
#X obj 396 525 route 1;
#X obj 348 97 r seq3-\$1-actions;
#X msg 348 214 1;
#X obj 394 216 t b;
#X msg 394 241 0;
#X obj 293 71 r \$0-print!;
#X obj 293 93 t b;
#X obj 348 139 f;
#X obj 348 192 sel 4, f 7;
#X msg 389 320 On;
#X msg 348 320 Off;
#X obj 348 419 pack 2 32 s;
#X msg 395 556 /oled/gPrintln 3 \$1 \$2 8 0 Ltch:\$3;
#X msg 349 582 /oled/gPrintln 3 \$1 \$2 8 1 Ltch:\$3;
#X obj 348 161 spigot 0;
#X obj 401 131 r cgSc-\$1-aux;
#X connect 0 0 1 0;
#X connect 1 1 2 0;
#X connect 2 0 3 0;
#X connect 5 0 4 0;
#X connect 6 0 22 0;
#X connect 6 1 21 0;
#X connect 7 0 9 0;
#X connect 8 0 5 0;
#X connect 8 1 25 0;
#X connect 8 2 10 1;
#X connect 8 3 11 0;
#X connect 9 0 23 0;
#X connect 9 1 23 2;
#X connect 10 0 12 0;
#X connect 11 0 10 0;
#X connect 12 0 24 0;
#X connect 13 0 19 0;
#X connect 14 0 6 0;
#X connect 15 0 16 0;
#X connect 16 0 6 0;
#X connect 17 0 18 0;
#X connect 18 0 19 0;
#X connect 19 0 26 0;
#X connect 20 0 14 0;
#X connect 20 1 15 0;
#X connect 21 0 7 0;
#X connect 22 0 7 0;
#X connect 23 0 8 0;
#X connect 24 0 4 0;
#X connect 25 0 4 0;
#X connect 26 0 20 0;
#X connect 27 0 26 1;
#X restore 515 373 pd latch-module;
#N canvas 904 444 871 385 re-print 0;
#X obj 96 30 inlet;
#X text 614 82 clear the screen;
#X msg 88 89 /oled/gFillArea 3 0 8 128 56 0;
#X obj 88 111 s oscOut;
#X connect 0 0 2 0;
#X connect 2 0 3 0;
#X restore 196 278 pd re-print;
#X obj 433 40 inlet notes;
#X obj 553 142 ==;
#N canvas 5 50 450 300 just-note-offs 0;
#X obj 67 16 inlet;
#X obj 67 38 unpack;
#X obj 67 89 sel 0;
#X obj 67 60 swap, f 6;
#X obj 67 116 f, f 7;
#X obj 67 138 pack 0 0;
#X obj 67 160 outlet;
#X connect 0 0 1 0;
#X connect 1 0 3 0;
#X connect 1 1 3 1;
#X connect 2 0 4 0;
#X connect 3 0 2 0;
#X connect 3 1 4 1;
#X connect 4 0 5 0;
#X connect 5 0 6 0;
#X restore 540 249 pd just-note-offs;
#X obj 514 290 outlet;
#X obj 433 62 t a a, f 12;
#X text 716 310 top line of keys "the black keys";
#X text 668 248 so notes dont get stuck;
#X obj 142 81 t f f f f, f 39;
#X obj 758 204 outlet mute-print;
#X obj 514 169 spigot 1;
#X obj 433 219 spigot 0;
#X obj 142 314 t b b;
#X obj 142 103 t f f;
#X obj 174 131 s cgSc-\$1-aux;
#X obj 701 154 del 1;
#X obj 704 115 sel 0 1, f 15;
#X msg 701 176 0;
#X msg 758 145 1;
#X connect 0 0 19 0;
#X connect 6 0 23 0;
#X connect 6 1 11 0;
#X connect 7 0 5 0;
#X connect 7 1 4 0;
#X connect 7 2 10 0;
#X connect 12 0 16 0;
#X connect 13 0 21 1;
#X connect 14 0 15 0;
#X connect 16 0 22 0;
#X connect 16 1 21 0;
#X connect 19 0 24 0;
#X connect 19 1 22 1;
#X connect 19 2 13 0;
#X connect 19 3 27 0;
#X connect 21 0 15 0;
#X connect 22 0 7 0;
#X connect 22 0 14 0;
#X connect 23 0 8 0;
#X connect 23 1 1 0;
#X connect 24 0 6 0;
#X connect 24 1 25 0;
#X connect 26 0 28 0;
#X connect 27 0 26 0;
#X connect 27 1 29 0;
#X connect 28 0 20 0;
#X connect 29 0 20 0;
