#N canvas 359 50 1282 893 10;
#X obj 177 200 inlet master-clock(f);
#X obj 360 846 outlet;
#X obj 441 146 f;
#X obj 524 155 + 1;
#X text 376 701 immediatley read next line;
#X obj 441 1 inlet manual read;
#X text 681 785 data title;
#X text 20 19 arg1 name of text file;
#X obj 177 287 t f f, f 18;
#X obj 738 66 inlet option;
#X obj 441 171 t f f;
#X obj 738 88 route repoint resize reset;
#X obj 722 313 list split 1, f 24;
#X obj 441 209 text get \$1, f 27;
#X obj 177 309 s \$0-clock;
#X text 390 149 count;
#X obj 554 340 s \$0-len;
#X obj 220 781 s \$0-feedback;
#X obj 509 108 r \$0-feedback;
#X msg 300 590 1;
#X obj 300 612 list append, f 64;
#X obj 300 635 route 1;
#X obj 360 806 list trim;
#X obj 300 540 sel 1;
#X obj 868 648 r \$0-len;
#X obj 868 670 outlet length;
#X obj 300 698 t b a, f 9;
#X obj 441 231 route bang;
#X text 537 231 filter a bang which reports the textfile is done;
#X text 741 282 route the dummy note to trigger a reset \, and route
the length to set loop length;
#X text 924 313 take apart the list to compare the time \, store the
pther parts of the list;
#X text 458 515 greater than or equal to compare;
#X text 354 553 if yes recompose the list and send out;
#X text 935 647 length out to other objects;
#X obj 508 290 route 0, f 31;
#X obj 508 314 t b b f;
#X msg 485 367 0;
#X obj 300 515 >=, f 21;
#X obj 441 25 t a b;
#X msg 473 51 0;
#X connect 0 0 8 0;
#X connect 2 0 10 0;
#X connect 3 0 2 1;
#X connect 5 0 38 0;
#X connect 8 0 14 0;
#X connect 8 1 37 0;
#X connect 9 0 11 0;
#X connect 10 0 13 0;
#X connect 10 1 3 0;
#X connect 11 0 13 3;
#X connect 12 0 37 1;
#X connect 12 1 20 1;
#X connect 13 0 27 0;
#X connect 18 0 2 0;
#X connect 19 0 20 0;
#X connect 20 0 21 0;
#X connect 21 0 26 0;
#X connect 22 0 1 0;
#X connect 23 0 19 0;
#X connect 24 0 25 0;
#X connect 26 0 17 0;
#X connect 26 1 22 0;
#X connect 27 1 34 0;
#X connect 34 0 35 0;
#X connect 34 1 12 0;
#X connect 35 0 36 0;
#X connect 35 1 20 1;
#X connect 35 2 16 0;
#X connect 36 0 37 0;
#X connect 37 0 23 0;
#X connect 38 0 2 0;
#X connect 38 1 39 0;
#X connect 39 0 2 0;
